<svg width="100" height="104" xmlns="http://www.w3.org/2000/svg"><g transform="translate(0 2)" stroke="#ED6A5A" stroke-width="5" fill="none" fill-rule="evenodd"><path d="M69.503 99.48c-8.747 0-14.742-3.908-17.305-6.549-1.128-1.163-1.548-1.597-2.202-1.597-.65 0-1.074.434-2.2 1.597-2.563 2.641-8.557 6.548-17.29 6.548-7.909 0-12.648-4.431-15.232-8.149-2.53-3.64-3.742-7.546-4.163-9.874 1.539 1.88 3.867 4.72 7.629 4.72 3.425 0 5.897-2.772 8.516-5.703 3.084-3.458 6.273-7.035 11.519-7.035 5.895 0 8.516 4.164 9.64 5.942.495.791.855 1.362 1.581 1.362.73 0 1.09-.573 1.588-1.366 1.12-1.778 3.742-5.939 9.635-5.939 5.245 0 8.436 3.578 11.52 7.036 2.62 2.931 5.09 5.703 8.516 5.703 3.765 0 6.092-2.843 7.634-4.724-.42 2.33-1.633 6.24-4.163 9.882-2.582 3.717-7.322 8.145-15.223 8.145z" stroke-linecap="round" stroke-linejoin="round"/><rect x="2.5" y="47.292" width="95" height="1" rx=".5"/><path d="M13.194 44.93V2.515c0-1.101.905-1.994 2.008-1.994h69.596c1.109 0 2.008.887 2.008 1.994V44.93" stroke-linecap="square"/><path d="M16.667 31.77h66.666" stroke-linecap="round" stroke-linejoin="round"/></g></svg>